<svg xmlns="http://www.w3.org/2000/svg" width="1024" height="1024" viewBox="0 0 1024 1024">
  <polygon points="512,22 569.4,373.4 766.6,257.4 650.6,454.6 1002,512 650.6,569.4 766.6,766.6 569.4,650.6 512,1002 454.6,650.6 257.4,766.6 373.4,569.4 22,512 373.4,454.6 257.4,257.4 454.6,373.4" fill="#F97316"></polygon>
  <circle cx="512" cy="512" r="342" fill="#8A3A0C"></circle>
  <circle cx="512" cy="512" r="322" fill="#FBE0CB"></circle>
  <circle cx="512" cy="512" r="298" fill="#8A3A0C"></circle>
  <circle cx="512" cy="512" r="280" fill="#0B0B0D"></circle>
  <rect x="356" y="585" width="60" height="80" rx="12" fill="#FCE7D6"></rect>
  <rect x="440" y="520" width="60" height="145" rx="12" fill="#F9C08A"></rect>
  <rect x="524" y="450" width="60" height="215" rx="12" fill="#F99A4E"></rect>
  <rect x="608" y="385" width="60" height="280" rx="12" fill="#F97316"></rect></svg>